<?xml version="1.0" encoding="utf-8"?>
<!-- Generator: Adobe Illustrator 16.0.3, SVG Export Plug-In . SVG Version: 6.00 Build 0)  -->
<!DOCTYPE svg PUBLIC "-//W3C//DTD SVG 1.1//EN" "http://www.w3.org/Graphics/SVG/1.1/DTD/svg11.dtd">
<svg version="1.1" id="Layer_1" xmlns="http://www.w3.org/2000/svg" xmlns:xlink="http://www.w3.org/1999/xlink" x="0px" y="0px"
	 width="300px" height="400px" viewBox="0 0 300 400" enable-background="new 0 0 300 400" xml:space="preserve">
<g>
	<path fill-rule="evenodd" clip-rule="evenodd" fill="#FFFFFF" d="M289,15c0,124.606,0,249.212,0,373.909c-92.895,0-185.789,0-279,0
		C10,264,10,139,10,14c3.241,2.149,6.922,3.505,7.481,8.473c2.341,20.837,5.015,41.636,7.604,62.444
		c4.108,33.028,8.211,66.059,12.381,99.08c4.189,33.183,8.469,66.354,12.688,99.534c3.569,28.063,6.993,56.145,10.716,84.186
		c1.6,12.047,10.93,20.162,22.924,20.187c41.491,0.086,82.981,0.083,124.474,0.001c11.777-0.022,20.968-8.069,22.896-19.666
		c0.463-2.788,0.603-5.628,1.021-8.425c4.183-27.972,8.444-55.932,12.584-83.909c6.504-43.95,12.945-87.91,19.387-131.87
		c5.885-40.167,11.808-80.328,17.503-120.522C282.342,18.695,284.232,15.843,289,15z"/>
	<path fill-rule="evenodd" clip-rule="evenodd" d="M36.621,144.729c4.764,38.149,9.525,76.299,14.35,114.439
		c4.573,36.16,9.183,72.314,13.875,108.459c1.179,9.078,9.354,16.354,18.674,16.379c41.662,0.108,83.325,0.115,124.987-0.004
		c9.806-0.028,17.451-7.562,18.876-17.305c5.728-39.185,11.596-78.349,17.381-117.524c5.154-34.896,10.283-69.796,15.398-104.697
		c5.163-35.232,10.303-70.469,15.438-105.706c0.672-4.612,1.58-9.223,1.789-13.86c0.288-6.388,2.869-11.05,8.611-13.91
		c4.017-0.929,2.912,1.983,3,4c-4.768,0.843-6.658,3.695-7.341,8.512c-5.695,40.194-11.618,80.355-17.503,120.522
		c-6.441,43.96-12.883,87.92-19.387,131.87c-4.14,27.978-8.401,55.938-12.584,83.909c-0.419,2.797-0.559,5.637-1.021,8.425
		c-1.929,11.597-11.119,19.644-22.896,19.666c-41.492,0.082-82.983,0.085-124.474-0.001c-11.994-0.024-21.325-8.14-22.924-20.187
		c-3.724-28.041-7.147-56.123-10.716-84.186c-4.219-33.18-8.499-66.352-12.688-99.534c-4.169-33.021-8.272-66.052-12.381-99.08
		c-2.588-20.809-5.263-41.607-7.604-62.444C16.922,17.505,13.241,16.149,10,14c-0.499-2.499,0.501-3.499,3-3
		c6.131,2.813,8.096,7.847,8.866,14.316"/>
	<path fill-rule="evenodd" clip-rule="evenodd" d="M263.066,65.484c-0.538,4.321-0.992,8.654-1.625,12.961
		c-5.834,39.672-11.686,79.343-17.56,119.009c-5.216,35.226-10.483,70.443-15.7,105.668c-3.047,20.574-6.066,41.152-9.04,61.737
		c-0.975,6.747-4.764,10.854-11.411,10.891c-27.328,0.155-54.658,0.074-81.987,0.04c-0.852-0.001-1.704-0.441-2.555-0.678
		c0-0.428,0-0.855,0.001-1.283c1.799-0.146,3.599-0.415,5.398-0.417c24.996-0.027,49.992-0.015,74.988-0.021
		c10.466-0.002,12.207-1.813,13.673-12.058c3.629-25.363,7.523-50.689,11.291-76.033c5.531-37.2,11.057-74.402,16.564-111.606
		c4.896-33.082,9.762-66.17,14.648-99.254c0.453-3.067,0.96-6.126,1.441-9.189C261.818,65.329,262.441,65.406,263.066,65.484z"/>
	<path fill-rule="evenodd" clip-rule="evenodd" d="M109.629,375.222c-5.086,0-10.173,0-15.259,0
		c0.002-0.406,0.005-0.813,0.008-1.218c5.088,0,10.176,0,15.264,0C109.637,374.409,109.633,374.815,109.629,375.222z"/>
	<path fill-rule="evenodd" clip-rule="evenodd" d="M267.205,38.191c-0.715,4.563-1.43,9.128-2.145,13.691
		c-0.664-0.107-1.327-0.215-1.99-0.322c0.688-4.563,1.375-9.127,2.062-13.69C265.822,37.977,266.514,38.084,267.205,38.191z"/>
</g>
</svg>
